# Blender v2.80 (sub 75) OBJ File: 'barrel.blend'
# www.blender.org
v 0.000000 0.000000 -1.000000
v 0.000000 2.724671 -0.928438
v 0.500000 0.000000 -0.866025
v 0.464219 2.724671 -0.804051
v 0.866025 0.000000 -0.500000
v 0.804051 2.724671 -0.464219
v 1.000000 0.000000 0.000000
v 0.928438 2.724671 0.000000
v 0.866025 0.000000 0.500000
v 0.804051 2.724671 0.464219
v 0.500000 0.000000 0.866025
v 0.464219 2.724671 0.804051
v 0.000000 0.000000 1.000000
v 0.000000 2.724671 0.928438
v -0.500000 0.000000 0.866026
v -0.464219 2.724671 0.804051
v -0.866025 0.000000 0.500000
v -0.804051 2.724671 0.464219
v -1.000000 0.000000 0.000000
v -0.928438 2.724671 0.000000
v -0.866026 0.000000 -0.499999
v -0.804051 2.724671 -0.464219
v -0.500001 0.000000 -0.866025
v -0.464220 2.724671 -0.804051
v 0.000000 0.754502 -1.087495
v 0.000000 0.641020 -1.115688
v 0.000000 0.718374 -1.124489
v 0.000000 0.676837 -1.120769
v 0.000000 2.083651 -1.115688
v 0.000000 1.970169 -1.087495
v 0.000000 2.047834 -1.120769
v 0.000000 2.006297 -1.124489
v 0.543747 1.970169 -0.941798
v 0.557844 2.083651 -0.966214
v 0.562245 2.006297 -0.973836
v 0.560385 2.047834 -0.970615
v 0.557844 0.641020 -0.966214
v 0.543747 0.754502 -0.941798
v 0.560385 0.676837 -0.970615
v 0.562245 0.718374 -0.973836
v 0.941798 1.970169 -0.543747
v 0.966214 2.083651 -0.557844
v 0.973836 2.006297 -0.562245
v 0.970615 2.047834 -0.560385
v 0.966214 0.641020 -0.557844
v 0.941798 0.754502 -0.543747
v 0.970615 0.676837 -0.560385
v 0.973837 0.718374 -0.562245
v 1.087495 1.970169 0.000000
v 1.115688 2.083651 0.000000
v 1.124489 2.006297 0.000000
v 1.120769 2.047834 0.000000
v 1.115688 0.641020 0.000000
v 1.087495 0.754502 0.000000
v 1.120769 0.676837 0.000000
v 1.124489 0.718374 0.000000
v 0.941798 1.970169 0.543747
v 0.966214 2.083651 0.557844
v 0.973837 2.006297 0.562245
v 0.970615 2.047834 0.560385
v 0.966214 0.641020 0.557844
v 0.941798 0.754502 0.543747
v 0.970615 0.676837 0.560385
v 0.973837 0.718374 0.562245
v 0.543748 1.970169 0.941798
v 0.557844 2.083651 0.966214
v 0.562245 2.006297 0.973836
v 0.560385 2.047834 0.970615
v 0.557844 0.641020 0.966214
v 0.543748 0.754502 0.941798
v 0.560385 0.676837 0.970615
v 0.562245 0.718374 0.973836
v 0.000000 1.970169 1.087495
v 0.000000 2.083651 1.115688
v 0.000000 2.006297 1.124489
v 0.000000 2.047834 1.120769
v 0.000000 0.641020 1.115688
v 0.000000 0.754502 1.087495
v 0.000000 0.676837 1.120769
v 0.000000 0.718374 1.124489
v -0.543747 1.970169 0.941798
v -0.557844 2.083651 0.966214
v -0.562245 2.006297 0.973837
v -0.560384 2.047834 0.970615
v -0.557844 0.641020 0.966214
v -0.543747 0.754502 0.941798
v -0.560384 0.676837 0.970615
v -0.562245 0.718374 0.973837
v -0.941798 1.970169 0.543748
v -0.966214 2.083651 0.557844
v -0.973836 2.006297 0.562245
v -0.970615 2.047834 0.560385
v -0.966214 0.641020 0.557844
v -0.941798 0.754502 0.543748
v -0.970615 0.676837 0.560385
v -0.973836 0.718374 0.562245
v -1.087495 1.970169 0.000000
v -1.115688 2.083651 0.000001
v -1.124489 2.006297 0.000001
v -1.120769 2.047834 0.000001
v -1.115688 0.641020 0.000001
v -1.087495 0.754502 0.000000
v -1.120769 0.676837 0.000001
v -1.124489 0.718374 0.000001
v -0.941799 1.970169 -0.543747
v -0.966214 2.083651 -0.557843
v -0.973837 2.006297 -0.562244
v -0.970615 2.047834 -0.560384
v -0.966214 0.641020 -0.557843
v -0.941799 0.754502 -0.543747
v -0.970615 0.676837 -0.560384
v -0.973837 0.718374 -0.562244
v -0.543748 1.970169 -0.941798
v -0.557844 2.083651 -0.966213
v -0.562245 2.006297 -0.973836
v -0.560385 2.047834 -0.970614
v -0.557844 0.641020 -0.966213
v -0.543748 0.754502 -0.941798
v -0.560385 0.676837 -0.970614
v -0.562245 0.718374 -0.973836
v 0.500000 2.724671 -0.866025
v 0.000000 2.724671 -1.000000
v 0.866025 2.724671 -0.500000
v 1.000000 2.724671 0.000000
v 0.866025 2.724671 0.500000
v 0.500000 2.724671 0.866025
v 0.000000 2.724671 1.000000
v -0.500000 2.724671 0.866026
v -0.866025 2.724671 0.500000
v -1.000000 2.724671 0.000000
v -0.866026 2.724671 -0.499999
v -0.500001 2.724671 -0.866025
v 0.464219 2.676476 -0.804051
v 0.000000 2.676476 -0.928438
v 0.804051 2.676476 -0.464219
v 0.928438 2.676476 0.000000
v 0.804051 2.676476 0.464219
v 0.464219 2.676476 0.804051
v 0.000000 2.676476 0.928438
v -0.464219 2.676476 0.804051
v -0.804051 2.676476 0.464219
v -0.928438 2.676476 0.000000
v -0.804051 2.676476 -0.464219
v -0.464220 2.676476 -0.804051
v 0.000000 1.362336 -1.152417
v 0.576208 1.362336 -0.998022
v -0.576209 1.362336 -0.998022
v 0.998022 1.362336 -0.576208
v 1.152417 1.362336 0.000000
v 0.998022 1.362336 0.576208
v 0.576208 1.362336 0.998022
v 0.000000 1.362336 1.152417
v -0.576208 1.362336 0.998022
v -0.998022 1.362336 0.576209
v -1.152417 1.362336 0.000001
v -0.998022 1.362336 -0.576208
vt 0.916667 1.000000
vt 0.833333 0.846793
vt 0.916667 0.846793
vt 0.916667 0.826170
vt 0.833333 0.750000
vt 0.916667 0.750000
vt 0.833333 0.826170
vt 0.750000 0.750000
vt 0.750000 0.826170
vt 0.666667 0.750000
vt 0.666667 0.826170
vt 0.583333 0.750000
vt 0.583333 0.826170
vt 0.500000 0.750000
vt 0.500000 0.826170
vt 0.416667 0.750000
vt 0.416667 0.826170
vt 0.333333 0.750000
vt 0.333333 0.826170
vt 0.250000 0.750000
vt 0.166667 0.826170
vt 0.166667 0.750000
vt 0.361413 0.442972
vt 0.442972 0.361413
vt 0.442972 0.361413
vt 0.083333 0.826170
vt 0.083333 0.750000
vt 1.000000 1.000000
vt 1.000000 0.846793
vt 0.510000 0.250000
vt 0.630000 0.457846
vt 0.990000 0.250000
vt 1.000000 0.826170
vt 1.000000 0.750000
vt 0.083333 1.000000
vt 0.000000 0.846793
vt 0.083333 0.846793
vt 0.166667 0.653207
vt 0.083333 0.500000
vt 0.166667 0.500000
vt 0.166667 0.846793
vt 0.250000 0.653207
vt 0.250000 0.500000
vt 0.250000 1.000000
vt 0.250000 0.846793
vt 0.333333 0.653207
vt 0.333333 0.500000
vt 0.333333 1.000000
vt 0.333333 0.846793
vt 0.416667 0.653207
vt 0.416667 0.500000
vt 0.416667 1.000000
vt 0.416667 0.846793
vt 0.500000 0.653207
vt 0.500000 0.500000
vt 0.500000 1.000000
vt 0.500000 0.846793
vt 0.583333 0.653207
vt 0.583333 0.500000
vt 0.583333 1.000000
vt 0.583333 0.846793
vt 0.666667 0.653207
vt 0.666667 0.500000
vt 0.666667 1.000000
vt 0.666667 0.846793
vt 0.750000 0.653207
vt 0.750000 0.500000
vt 0.750000 1.000000
vt 0.750000 0.846793
vt 0.833333 0.500000
vt 0.833333 1.000000
vt 0.916667 0.653207
vt 0.916667 0.500000
vt 0.000000 0.653207
vt 0.000000 0.500000
vt 0.000000 0.750000
vt 0.000000 0.673830
vt 0.083333 0.669303
vt 0.083333 0.673830
vt 0.000051 0.661713
vt 0.083333 0.661713
vt 0.083333 0.653207
vt 0.083333 0.838287
vt 0.000051 0.838287
vt 0.083333 0.830697
vt 0.000050 0.830697
vt 0.166667 0.669303
vt 0.166667 0.673830
vt 0.166667 0.661713
vt 0.166667 0.838287
vt 0.166667 0.830697
vt 0.250000 0.669303
vt 0.250000 0.673830
vt 0.250000 0.661713
vt 0.250000 0.838287
vt 0.250000 0.830697
vt 0.250000 0.826170
vt 0.333333 0.669303
vt 0.333333 0.673830
vt 0.333333 0.661713
vt 0.333333 0.838287
vt 0.333333 0.830697
vt 0.416667 0.669303
vt 0.416667 0.673830
vt 0.416667 0.661713
vt 0.416667 0.838287
vt 0.416667 0.830697
vt 0.500000 0.669303
vt 0.500000 0.673830
vt 0.500000 0.661713
vt 0.500000 0.838287
vt 0.500000 0.830697
vt 0.583333 0.669303
vt 0.583333 0.673830
vt 0.583333 0.661713
vt 0.583333 0.838287
vt 0.583333 0.830697
vt 0.666667 0.669303
vt 0.666667 0.673830
vt 0.666667 0.661713
vt 0.666667 0.838287
vt 0.666667 0.830697
vt 0.750000 0.669303
vt 0.750000 0.673830
vt 0.750000 0.661713
vt 0.750000 0.838287
vt 0.750000 0.830697
vt 0.833333 0.669303
vt 0.833333 0.673830
vt 0.833333 0.661713
vt 0.833333 0.653207
vt 0.833333 0.838287
vt 0.833333 0.830697
vt 0.916667 0.669303
vt 0.916667 0.673830
vt 0.916667 0.661713
vt 0.916667 0.838287
vt 0.916667 0.830697
vt 0.999949 0.669303
vt 1.000000 0.673830
vt 0.999949 0.661713
vt 1.000000 0.653207
vt 0.999949 0.838287
vt 0.999950 0.830697
vt 1.000000 0.500000
vt 0.250000 0.472825
vt 0.370000 0.457846
vt 0.250000 0.490000
vt 0.490000 0.250000
vt 0.457846 0.370000
vt 0.442972 0.138587
vt 0.472825 0.250000
vt 0.361413 0.057028
vt 0.457846 0.130000
vt 0.250000 0.010000
vt 0.370000 0.042154
vt 0.138587 0.057028
vt 0.250000 0.027175
vt 0.057028 0.138587
vt 0.130000 0.042154
vt 0.027175 0.250000
vt 0.042154 0.130000
vt 0.057028 0.361412
vt 0.010000 0.250000
vt 0.138587 0.442972
vt 0.042154 0.370000
vt 0.130000 0.457846
vt 0.057028 0.361412
vt 0.250000 0.027175
vt 0.027175 0.250000
vt 0.472825 0.250000
vt 0.138587 0.057028
vt 0.442972 0.138587
vt 0.138587 0.442972
vt 0.361413 0.442972
vt 0.057028 0.138587
vt 0.361413 0.057028
vt 0.250000 0.472825
vt 0.750000 0.490000
vt 0.870000 0.457846
vt 0.957846 0.370000
vt 0.957846 0.130000
vt 0.870000 0.042154
vt 0.750000 0.010000
vt 0.630000 0.042154
vt 0.542154 0.130000
vt 0.542154 0.370000
vt 0.000000 1.000000
vt 0.166667 1.000000
vt 0.000000 0.826170
vt 0.000050 0.669303
vn 0.6966 0.1717 -0.6966
vn 0.7034 0.1026 -0.7034
vn 0.9608 0.1026 -0.2575
vn 0.9608 0.1026 0.2575
vn 0.7034 0.1026 0.7034
vn 0.2575 0.1026 0.9608
vn -0.2575 0.1026 0.9608
vn -0.7034 0.1026 0.7034
vn -0.9608 0.1026 0.2575
vn -0.9608 0.1026 -0.2575
vn -0.7071 0.0000 0.7071
vn -0.7034 0.1026 -0.7034
vn 0.2550 0.1717 -0.9516
vn 0.0000 -1.0000 0.0000
vn 0.2575 0.1026 -0.9608
vn -0.2550 0.1717 -0.9516
vn -0.6966 -0.1717 -0.6966
vn -0.6966 0.1717 -0.6966
vn -0.9516 -0.1717 -0.2550
vn -0.9516 0.1717 -0.2550
vn -0.9516 -0.1717 0.2550
vn -0.9516 0.1717 0.2550
vn -0.6966 -0.1717 0.6966
vn -0.6966 0.1717 0.6966
vn -0.2550 -0.1717 0.9516
vn -0.2550 0.1717 0.9516
vn 0.2550 -0.1717 0.9516
vn 0.2550 0.1717 0.9516
vn 0.6966 -0.1717 0.6966
vn 0.6966 0.1717 0.6966
vn 0.9516 -0.1717 0.2550
vn 0.9516 0.1717 0.2550
vn 0.9516 -0.1717 -0.2550
vn 0.9516 0.1717 -0.2550
vn 0.6966 -0.1717 -0.6966
vn -0.2550 -0.1717 -0.9516
vn -0.2575 0.1026 -0.9608
vn -0.1840 0.7032 -0.6867
vn -0.2579 -0.0862 -0.9623
vn -0.2564 -0.1358 -0.9570
vn -0.2564 0.1358 -0.9570
vn -0.2579 0.0862 -0.9623
vn -0.1840 -0.7032 -0.6867
vn -0.5027 0.7032 -0.5027
vn -0.7045 -0.0862 -0.7045
vn -0.7006 -0.1358 -0.7006
vn -0.7006 0.1358 -0.7006
vn -0.7045 0.0862 -0.7045
vn -0.5027 -0.7032 -0.5027
vn -0.6867 0.7032 -0.1840
vn -0.9623 -0.0862 -0.2579
vn -0.9570 -0.1358 -0.2564
vn -0.9570 0.1358 -0.2564
vn -0.9623 0.0862 -0.2579
vn -0.6867 -0.7032 -0.1840
vn -0.6867 0.7032 0.1840
vn -0.9623 -0.0862 0.2579
vn -0.9570 -0.1358 0.2564
vn -0.9570 0.1358 0.2564
vn -0.9623 0.0862 0.2579
vn -0.6867 -0.7032 0.1840
vn -0.5027 0.7032 0.5027
vn -0.7045 -0.0862 0.7045
vn -0.7006 -0.1358 0.7006
vn -0.7006 0.1358 0.7006
vn -0.7045 0.0862 0.7045
vn -0.5027 -0.7032 0.5027
vn -0.1840 0.7032 0.6867
vn -0.2579 -0.0862 0.9623
vn -0.2564 -0.1358 0.9570
vn -0.2564 0.1358 0.9570
vn -0.2579 0.0862 0.9623
vn -0.1840 -0.7032 0.6867
vn 0.1840 0.7032 0.6867
vn 0.2579 -0.0862 0.9623
vn 0.2564 -0.1358 0.9570
vn 0.2564 0.1358 0.9570
vn 0.2579 0.0862 0.9623
vn 0.1840 -0.7032 0.6867
vn 0.5027 0.7032 0.5027
vn 0.7045 -0.0862 0.7045
vn 0.7006 -0.1358 0.7006
vn 0.7006 0.1358 0.7006
vn 0.7045 0.0862 0.7045
vn 0.5027 -0.7032 0.5027
vn 0.6867 0.7032 0.1840
vn 0.9623 -0.0862 0.2579
vn 0.9570 -0.1358 0.2564
vn 0.9570 0.1358 0.2564
vn 0.9623 0.0862 0.2579
vn 0.6867 -0.7032 0.1840
vn 0.6867 0.7032 -0.1840
vn 0.9623 -0.0862 -0.2579
vn 0.9570 -0.1358 -0.2564
vn 0.9570 0.1358 -0.2564
vn 0.9623 0.0862 -0.2579
vn 0.6867 -0.7032 -0.1840
vn 0.5027 0.7032 -0.5027
vn 0.7045 -0.0862 -0.7045
vn 0.7006 -0.1358 -0.7006
vn 0.7006 0.1358 -0.7006
vn 0.7045 0.0862 -0.7045
vn 0.5027 -0.7032 -0.5027
vn 0.1840 0.7032 -0.6867
vn 0.2579 -0.0862 -0.9623
vn 0.2564 -0.1358 -0.9570
vn 0.2564 0.1358 -0.9570
vn 0.2579 0.0862 -0.9623
vn 0.1840 -0.7032 -0.6867
vn 0.2550 -0.1717 -0.9516
vn 0.0000 1.0000 0.0000
vn 0.9659 0.0000 -0.2588
vn -0.2588 0.0000 -0.9659
vn -0.9659 0.0000 0.2588
vn 0.9659 0.0000 0.2588
vn 0.2588 0.0000 -0.9659
vn -0.9659 0.0000 -0.2588
vn 0.7071 0.0000 0.7071
vn -0.2588 0.0000 0.9659
vn 0.7071 0.0000 -0.7071
vn -0.7071 0.0000 -0.7071
vn 0.2588 0.0000 0.9659
vn -0.2575 -0.1026 -0.9608
vn 0.2575 -0.1026 -0.9608
vn -0.7034 -0.1026 -0.7034
vn -0.9608 -0.1026 -0.2575
vn -0.9608 -0.1026 0.2575
vn -0.7034 -0.1026 0.7034
vn -0.2575 -0.1026 0.9608
vn 0.2575 -0.1026 0.9608
vn 0.7034 -0.1026 0.7034
vn 0.9608 -0.1026 0.2575
vn 0.9608 -0.1026 -0.2575
vn 0.7034 -0.1026 -0.7034
s off
f 121/1/1 42/2/1 34/3/1
f 33/4/2 148/5/2 146/6/2
f 41/7/3 149/8/3 148/5/3
f 49/9/4 150/10/4 149/8/4
f 57/11/5 151/12/5 150/10/5
f 65/13/6 152/14/6 151/12/6
f 73/15/7 153/16/7 152/14/7
f 81/17/8 154/18/8 153/16/8
f 89/19/9 155/20/9 154/18/9
f 155/20/10 105/21/10 156/22/10
f 4/23/11 135/24/11 6/25/11
f 156/22/12 113/26/12 147/27/12
f 122/28/13 34/3/13 29/29/13
f 19/30/14 23/31/14 7/32/14
f 30/33/15 146/6/15 145/34/15
f 132/35/16 29/36/16 114/37/16
f 109/38/17 23/39/17 21/40/17
f 106/41/18 132/35/18 114/37/18
f 101/42/19 21/40/19 19/43/19
f 130/44/20 106/41/20 98/45/20
f 93/46/21 19/43/21 17/47/21
f 129/48/22 98/45/22 90/49/22
f 85/50/23 17/47/23 15/51/23
f 128/52/24 90/49/24 82/53/24
f 77/54/25 15/51/25 13/55/25
f 127/56/26 82/53/26 74/57/26
f 69/58/27 13/55/27 11/59/27
f 126/60/28 74/57/28 66/61/28
f 61/62/29 11/59/29 9/63/29
f 125/64/30 66/61/30 58/65/30
f 53/66/31 9/63/31 7/67/31
f 124/68/32 58/65/32 50/69/32
f 5/70/33 53/66/33 7/67/33
f 123/71/34 50/69/34 42/2/34
f 37/72/35 5/70/35 3/73/35
f 23/39/36 26/74/36 1/75/36
f 113/26/37 145/76/37 147/27/37
f 25/77/38 120/78/38 118/79/38
f 120/78/39 28/80/39 119/81/39
f 28/80/40 117/82/40 119/81/40
f 29/36/41 116/83/41 114/37/41
f 31/84/42 115/85/42 116/83/42
f 32/86/43 113/26/43 115/85/43
f 118/79/44 112/87/44 110/88/44
f 120/78/45 111/89/45 112/87/45
f 119/81/46 109/38/46 111/89/46
f 114/37/47 108/90/47 106/41/47
f 116/83/48 107/91/48 108/90/48
f 115/85/49 105/21/49 107/91/49
f 110/88/50 104/92/50 102/93/50
f 104/92/51 111/89/51 103/94/51
f 111/89/52 101/42/52 103/94/52
f 106/41/53 100/95/53 98/45/53
f 108/90/54 99/96/54 100/95/54
f 107/91/55 97/97/55 99/96/55
f 102/93/56 96/98/56 94/99/56
f 104/92/57 95/100/57 96/98/57
f 103/94/58 93/46/58 95/100/58
f 98/45/59 92/101/59 90/49/59
f 100/95/60 91/102/60 92/101/60
f 99/96/61 89/19/61 91/102/61
f 94/99/62 88/103/62 86/104/62
f 96/98/63 87/105/63 88/103/63
f 95/100/64 85/50/64 87/105/64
f 90/49/65 84/106/65 82/53/65
f 92/101/66 83/107/66 84/106/66
f 83/107/67 89/19/67 81/17/67
f 86/104/68 80/108/68 78/109/68
f 88/103/69 79/110/69 80/108/69
f 87/105/70 77/54/70 79/110/70
f 82/53/71 76/111/71 74/57/71
f 84/106/72 75/112/72 76/111/72
f 83/107/73 73/15/73 75/112/73
f 78/109/74 72/113/74 70/114/74
f 80/108/75 71/115/75 72/113/75
f 79/110/76 69/58/76 71/115/76
f 74/57/77 68/116/77 66/61/77
f 68/116/78 75/112/78 67/117/78
f 75/112/79 65/13/79 67/117/79
f 70/114/80 64/118/80 62/119/80
f 72/113/81 63/120/81 64/118/81
f 71/115/82 61/62/82 63/120/82
f 66/61/83 60/121/83 58/65/83
f 60/121/84 67/117/84 59/122/84
f 67/117/85 57/11/85 59/122/85
f 62/119/86 56/123/86 54/124/86
f 64/118/87 55/125/87 56/123/87
f 63/120/88 53/66/88 55/125/88
f 50/69/89 60/121/89 52/126/89
f 60/121/90 51/127/90 52/126/90
f 51/127/91 57/11/91 49/9/91
f 54/124/92 48/128/92 46/129/92
f 56/123/93 47/130/93 48/128/93
f 55/125/94 45/131/94 47/130/94
f 50/69/95 44/132/95 42/2/95
f 44/132/96 51/127/96 43/133/96
f 51/127/97 41/7/97 43/133/97
f 46/129/98 40/134/98 38/135/98
f 48/128/99 39/136/99 40/134/99
f 47/130/100 37/72/100 39/136/100
f 42/2/101 36/137/101 34/3/101
f 44/132/102 35/138/102 36/137/102
f 43/133/103 33/4/103 35/138/103
f 38/135/104 27/139/104 25/140/104
f 27/139/105 39/136/105 28/141/105
f 39/136/106 26/142/106 28/141/106
f 34/3/107 31/143/107 29/29/107
f 36/137/108 32/144/108 31/143/108
f 32/144/109 33/4/109 30/33/109
f 26/142/110 3/73/110 1/145/110
f 2/146/111 121/147/111 122/148/111
f 6/25/111 121/147/111 4/23/111
f 6/25/111 124/149/111 123/150/111
f 10/151/111 124/149/111 8/152/111
f 12/153/111 125/154/111 10/151/111
f 12/153/111 127/155/111 126/156/111
f 16/157/111 127/155/111 14/158/111
f 18/159/111 128/160/111 16/157/111
f 20/161/111 129/162/111 18/159/111
f 22/163/111 130/164/111 20/161/111
f 24/165/111 131/166/111 22/163/111
f 2/146/111 132/167/111 24/165/111
f 143/168/111 139/169/111 135/24/111
f 18/159/112 142/170/112 20/161/112
f 12/153/113 139/169/113 14/158/113
f 6/25/114 136/171/114 8/152/114
f 20/161/115 143/168/115 22/163/115
f 14/158/116 140/172/116 16/157/116
f 8/152/117 137/173/117 10/151/117
f 22/163/118 144/174/118 24/165/118
f 2/146/119 133/175/119 4/23/119
f 16/157/120 141/176/120 18/159/120
f 10/151/121 138/177/121 12/153/121
f 24/165/122 134/178/122 2/146/122
f 147/27/123 25/77/123 118/79/123
f 25/140/124 146/6/124 38/135/124
f 156/22/125 118/79/125 110/88/125
f 155/20/126 110/88/126 102/93/126
f 154/18/127 102/93/127 94/99/127
f 153/16/128 94/99/128 86/104/128
f 152/14/129 86/104/129 78/109/129
f 151/12/130 78/109/130 70/114/130
f 150/10/131 70/114/131 62/119/131
f 149/8/132 62/119/132 54/124/132
f 46/129/133 149/8/133 54/124/133
f 146/6/134 46/129/134 38/135/134
f 121/1/1 123/71/1 42/2/1
f 33/4/2 41/7/2 148/5/2
f 41/7/3 49/9/3 149/8/3
f 49/9/4 57/11/4 150/10/4
f 57/11/5 65/13/5 151/12/5
f 65/13/6 73/15/6 152/14/6
f 73/15/7 81/17/7 153/16/7
f 81/17/8 89/19/8 154/18/8
f 89/19/9 97/97/9 155/20/9
f 155/20/10 97/97/10 105/21/10
f 4/23/11 133/175/11 135/24/11
f 156/22/12 105/21/12 113/26/12
f 122/28/13 121/1/13 34/3/13
f 23/31/14 1/179/14 3/180/14
f 3/180/14 5/181/14 7/32/14
f 7/32/14 9/182/14 11/183/14
f 11/183/14 13/184/14 15/185/14
f 15/185/14 17/186/14 19/30/14
f 19/30/14 21/187/14 23/31/14
f 23/31/14 3/180/14 7/32/14
f 7/32/14 11/183/14 15/185/14
f 15/185/14 19/30/14 7/32/14
f 30/33/15 33/4/15 146/6/15
f 132/35/16 122/188/16 29/36/16
f 109/38/17 117/82/17 23/39/17
f 106/41/18 131/189/18 132/35/18
f 101/42/19 109/38/19 21/40/19
f 130/44/20 131/189/20 106/41/20
f 93/46/21 101/42/21 19/43/21
f 129/48/22 130/44/22 98/45/22
f 85/50/23 93/46/23 17/47/23
f 128/52/24 129/48/24 90/49/24
f 77/54/25 85/50/25 15/51/25
f 127/56/26 128/52/26 82/53/26
f 69/58/27 77/54/27 13/55/27
f 126/60/28 127/56/28 74/57/28
f 61/62/29 69/58/29 11/59/29
f 125/64/30 126/60/30 66/61/30
f 53/66/31 61/62/31 9/63/31
f 124/68/32 125/64/32 58/65/32
f 5/70/33 45/131/33 53/66/33
f 123/71/34 124/68/34 50/69/34
f 37/72/35 45/131/35 5/70/35
f 23/39/36 117/82/36 26/74/36
f 113/26/37 30/190/37 145/76/37
f 25/77/38 27/191/38 120/78/38
f 120/78/39 27/191/39 28/80/39
f 28/80/40 26/74/40 117/82/40
f 29/36/41 31/84/41 116/83/41
f 31/84/42 32/86/42 115/85/42
f 32/86/43 30/190/43 113/26/43
f 118/79/44 120/78/44 112/87/44
f 120/78/45 119/81/45 111/89/45
f 119/81/46 117/82/46 109/38/46
f 114/37/47 116/83/47 108/90/47
f 116/83/48 115/85/48 107/91/48
f 115/85/49 113/26/49 105/21/49
f 110/88/50 112/87/50 104/92/50
f 104/92/51 112/87/51 111/89/51
f 111/89/52 109/38/52 101/42/52
f 106/41/53 108/90/53 100/95/53
f 108/90/54 107/91/54 99/96/54
f 107/91/55 105/21/55 97/97/55
f 102/93/56 104/92/56 96/98/56
f 104/92/57 103/94/57 95/100/57
f 103/94/58 101/42/58 93/46/58
f 98/45/59 100/95/59 92/101/59
f 100/95/60 99/96/60 91/102/60
f 99/96/61 97/97/61 89/19/61
f 94/99/62 96/98/62 88/103/62
f 96/98/63 95/100/63 87/105/63
f 95/100/64 93/46/64 85/50/64
f 90/49/65 92/101/65 84/106/65
f 92/101/66 91/102/66 83/107/66
f 83/107/67 91/102/67 89/19/67
f 86/104/68 88/103/68 80/108/68
f 88/103/69 87/105/69 79/110/69
f 87/105/70 85/50/70 77/54/70
f 82/53/71 84/106/71 76/111/71
f 84/106/72 83/107/72 75/112/72
f 83/107/73 81/17/73 73/15/73
f 78/109/74 80/108/74 72/113/74
f 80/108/75 79/110/75 71/115/75
f 79/110/76 77/54/76 69/58/76
f 74/57/77 76/111/77 68/116/77
f 68/116/78 76/111/78 75/112/78
f 75/112/79 73/15/79 65/13/79
f 70/114/80 72/113/80 64/118/80
f 72/113/81 71/115/81 63/120/81
f 71/115/82 69/58/82 61/62/82
f 66/61/83 68/116/83 60/121/83
f 60/121/84 68/116/84 67/117/84
f 67/117/85 65/13/85 57/11/85
f 62/119/86 64/118/86 56/123/86
f 64/118/87 63/120/87 55/125/87
f 63/120/88 61/62/88 53/66/88
f 50/69/89 58/65/89 60/121/89
f 60/121/90 59/122/90 51/127/90
f 51/127/91 59/122/91 57/11/91
f 54/124/92 56/123/92 48/128/92
f 56/123/93 55/125/93 47/130/93
f 55/125/94 53/66/94 45/131/94
f 50/69/95 52/126/95 44/132/95
f 44/132/96 52/126/96 51/127/96
f 51/127/97 49/9/97 41/7/97
f 46/129/98 48/128/98 40/134/98
f 48/128/99 47/130/99 39/136/99
f 47/130/100 45/131/100 37/72/100
f 42/2/101 44/132/101 36/137/101
f 44/132/102 43/133/102 35/138/102
f 43/133/103 41/7/103 33/4/103
f 38/135/104 40/134/104 27/139/104
f 27/139/105 40/134/105 39/136/105
f 39/136/106 37/72/106 26/142/106
f 34/3/107 36/137/107 31/143/107
f 36/137/108 35/138/108 32/144/108
f 32/144/109 35/138/109 33/4/109
f 26/142/110 37/72/110 3/73/110
f 2/146/111 4/23/111 121/147/111
f 6/25/111 123/150/111 121/147/111
f 6/25/111 8/152/111 124/149/111
f 10/151/111 125/154/111 124/149/111
f 12/153/111 126/156/111 125/154/111
f 12/153/111 14/158/111 127/155/111
f 16/157/111 128/160/111 127/155/111
f 18/159/111 129/162/111 128/160/111
f 20/161/111 130/164/111 129/162/111
f 22/163/111 131/166/111 130/164/111
f 24/165/111 132/167/111 131/166/111
f 2/146/111 122/148/111 132/167/111
f 135/24/111 133/175/111 134/178/111
f 134/178/111 144/174/111 143/168/111
f 143/168/111 142/170/111 141/176/111
f 141/176/111 140/172/111 139/169/111
f 139/169/111 138/177/111 137/173/111
f 137/173/111 136/171/111 135/24/111
f 135/24/111 134/178/111 143/168/111
f 143/168/111 141/176/111 139/169/111
f 139/169/111 137/173/111 135/24/111
f 18/159/112 141/176/112 142/170/112
f 12/153/113 138/177/113 139/169/113
f 6/25/114 135/24/114 136/171/114
f 20/161/115 142/170/115 143/168/115
f 14/158/116 139/169/116 140/172/116
f 8/152/117 136/171/117 137/173/117
f 22/163/118 143/168/118 144/174/118
f 2/146/119 134/178/119 133/175/119
f 16/157/120 140/172/120 141/176/120
f 10/151/121 137/173/121 138/177/121
f 24/165/122 144/174/122 134/178/122
f 147/27/123 145/76/123 25/77/123
f 25/140/124 145/34/124 146/6/124
f 156/22/125 147/27/125 118/79/125
f 155/20/126 156/22/126 110/88/126
f 154/18/127 155/20/127 102/93/127
f 153/16/128 154/18/128 94/99/128
f 152/14/129 153/16/129 86/104/129
f 151/12/130 152/14/130 78/109/130
f 150/10/131 151/12/131 70/114/131
f 149/8/132 150/10/132 62/119/132
f 46/129/133 148/5/133 149/8/133
f 146/6/134 148/5/134 46/129/134
