{
  "accessors": [
    {
      "bufferView": 2,
      "componentType": 5126,
      "count": 36,
      "max": [
        195.73638916015625,
        1.1102230246251565e-16,
        195.73638916015625
      ],
      "min": [
        -195.73638916015625,
        -1.1102230246251565e-16,
        -195.73638916015625
      ],
      "type": "VEC3"
    },
    {
      "bufferView": 2,
      "byteOffset": 432,
      "componentType": 5126,
      "count": 36,
      "max": [
        0,
        1,
        5.6720327779795753e-19
      ],
      "min": [
        0,
        1,
        5.6720307100280439e-19
      ],
      "type": "VEC3"
    },
    {
      "bufferView": 3,
      "componentType": 5126,
      "count": 36,
      "max": [
        1,
        0,
        0,
        1
      ],
      "min": [
        1,
        0,
        0,
        1
      ],
      "type": "VEC4"
    },
    {
      "bufferView": 1,
      "componentType": 5126,
      "count": 36,
      "max": [
        1,
        1
      ],
      "min": [
        0,
        0
      ],
      "type": "VEC2"
    },
    {
      "bufferView": 0,
      "componentType": 5125,
      "count": 150,
      "max": [
        35
      ],
      "min": [
        0
      ],
      "type": "SCALAR"
    },
    {
      "bufferView": 2,
      "byteOffset": 864,
      "componentType": 5126,
      "count": 358,
      "max": [
        64.735893249511719,
        83.866462707519531,
        25.583810806274414
      ],
      "min": [
        1.6328678131103516,
        -1.621246337890625e-05,
        -37.519138336181641
      ],
      "type": "VEC3"
    },
    {
      "bufferView": 2,
      "byteOffset": 5160,
      "componentType": 5126,
      "count": 358,
      "max": [
        0.9923025369644165,
        1,
        0.99230259656906128
      ],
      "min": [
        -0.99230265617370605,
        -1,
        -0.99230265617370605
      ],
      "type": "VEC3"
    },
    {
      "bufferView": 3,
      "byteOffset": 576,
      "componentType": 5126,
      "count": 358,
      "max": [
        0.99875122308731079,
        0.86433333158493042,
        0.99877744913101196,
        1
      ],
      "min": [
        -0.99875497817993164,
        -0.86433261632919312,
        -0.99875056743621826,
        1
      ],
      "type": "VEC4"
    },
    {
      "bufferView": 1,
      "byteOffset": 288,
      "componentType": 5126,
      "count": 358,
      "max": [
        0.98779296875,
        0.97573292255401611
      ],
      "min": [
        0.01220703125,
        0.01220703125
      ],
      "type": "VEC2"
    },
    {
      "bufferView": 0,
      "byteOffset": 600,
      "componentType": 5125,
      "count": 1104,
      "max": [
        357
      ],
      "min": [
        0
      ],
      "type": "SCALAR"
    },
    {
      "bufferView": 2,
      "byteOffset": 9456,
      "componentType": 5126,
      "count": 358,
      "max": [
        5.4169216156005859,
        62.677463531494141,
        44.363361358642578
      ],
      "min": [
        -64.735893249511719,
        0,
        -44.363365173339844
      ],
      "type": "VEC3"
    },
    {
      "bufferView": 2,
      "byteOffset": 13752,
      "componentType": 5126,
      "count": 358,
      "max": [
        0.98393470048904419,
        0.98561137914657593,
        0.99154728651046753
      ],
      "min": [
        -0.98393470048904419,
        -0.98561131954193115,
        -0.99154722690582275
      ],
      "type": "VEC3"
    },
    {
      "bufferView": 3,
      "byteOffset": 6304,
      "componentType": 5126,
      "count": 358,
      "max": [
        0.99119853973388672,
        0.99380141496658325,
        0.92141741514205933,
        1
      ],
      "min": [
        -0.99119842052459717,
        -0.99392586946487427,
        -0.79279041290283203,
        1
      ],
      "type": "VEC4"
    },
    {
      "bufferView": 1,
      "byteOffset": 3152,
      "componentType": 5126,
      "count": 358,
      "max": [
        0.98779296875,
        0.97573292255401611
      ],
      "min": [
        0.01220703125,
        0.01220703125
      ],
      "type": "VEC2"
    },
    {
      "bufferView": 0,
      "byteOffset": 5016,
      "componentType": 5125,
      "count": 1104,
      "max": [
        357
      ],
      "min": [
        0
      ],
      "type": "SCALAR"
    }
  ],
  "asset": {
    "extras": {
      "author": "Ilya Ostrovsky (https://sketchfab.com/strov)",
      "license": "CC-BY-4.0 (http://creativecommons.org/licenses/by/4.0/)",
      "source": "https://sketchfab.com/models/72a767fb5af44f3c972970e371aba3c5",
      "title": "DOOM Barrels"
    },
    "generator": "Sketchfab-3.45.3",
    "version": "2.0"
  },
  "bufferViews": [
    {
      "buffer": 0,
      "byteLength": 9432,
      "byteOffset": 0,
      "name": "floatBufferViews",
      "target": 34963
    },
    {
      "buffer": 0,
      "byteLength": 6016,
      "byteOffset": 9432,
      "byteStride": 8,
      "name": "floatBufferViews",
      "target": 34962
    },
    {
      "buffer": 0,
      "byteLength": 18048,
      "byteOffset": 15448,
      "byteStride": 12,
      "name": "floatBufferViews",
      "target": 34962
    },
    {
      "buffer": 0,
      "byteLength": 12032,
      "byteOffset": 33496,
      "byteStride": 16,
      "name": "floatBufferViews",
      "target": 34962
    }
  ],
  "buffers": [
    {
      "byteLength": 45528,
      "uri": "scene.bin"
    }
  ],
  "images": [
    {
      "uri": "textures/barrel1_metallicRoughness.png"
    },
    {
      "uri": "textures/barrel1_normal.png"
    },
    {
      "uri": "textures/barrel1_emissive.jpeg"
    },
    {
      "uri": "textures/barrel1_baseColor.jpeg"
    },
    {
      "uri": "textures/ground_baseColor.png"
    },
    {
      "uri": "textures/barrel2_metallicRoughness.png"
    },
    {
      "uri": "textures/barrel2_normal.png"
    },
    {
      "uri": "textures/barrel2_baseColor.jpeg"
    }
  ],
  "materials": [
    {
      "alphaMode": "BLEND",
      "doubleSided": false,
      "name": "ground",
      "pbrMetallicRoughness": {
        "baseColorFactor": [
          0,
          0,
          0,
          1
        ],
        "baseColorTexture": {
          "index": 4,
          "texCoord": 0
        },
        "metallicFactor": 0,
        "roughnessFactor": 0.90000000000000002
      }
    },
    {
      "doubleSided": true,
      "emissiveFactor": [
        1,
        1,
        1
      ],
      "emissiveTexture": {
        "index": 2,
        "texCoord": 0
      },
      "name": "barrel1",
      "normalTexture": {
        "index": 1,
        "scale": 1,
        "texCoord": 0
      },
      "occlusionTexture": {
        "index": 0,
        "strength": 1,
        "texCoord": 0
      },
      "pbrMetallicRoughness": {
        "baseColorFactor": [
          1,
          1,
          1,
          1
        ],
        "baseColorTexture": {
          "index": 3,
          "texCoord": 0
        },
        "metallicFactor": 1,
        "metallicRoughnessTexture": {
          "index": 0,
          "texCoord": 0
        },
        "roughnessFactor": 1
      }
    },
    {
      "doubleSided": true,
      "emissiveFactor": [
        0,
        0,
        0
      ],
      "name": "barrel2",
      "normalTexture": {
        "index": 6,
        "scale": 1,
        "texCoord": 0
      },
      "occlusionTexture": {
        "index": 5,
        "strength": 1,
        "texCoord": 0
      },
      "pbrMetallicRoughness": {
        "baseColorFactor": [
          1,
          1,
          1,
          1
        ],
        "baseColorTexture": {
          "index": 7,
          "texCoord": 0
        },
        "metallicFactor": 1,
        "metallicRoughnessTexture": {
          "index": 5,
          "texCoord": 0
        },
        "roughnessFactor": 1
      }
    }
  ],
  "meshes": [
    {
      "name": "ground_geo_ground_0",
      "primitives": [
        {
          "attributes": {
            "NORMAL": 1,
            "POSITION": 0,
            "TANGENT": 2,
            "TEXCOORD_0": 3
          },
          "indices": 4,
          "material": 0,
          "mode": 4
        }
      ]
    },
    {
      "name": "barrel1_geo_barrel1_0",
      "primitives": [
        {
          "attributes": {
            "NORMAL": 6,
            "POSITION": 5,
            "TANGENT": 7,
            "TEXCOORD_0": 8
          },
          "indices": 9,
          "material": 1,
          "mode": 4
        }
      ]
    },
    {
      "name": "barrel2_geo_barrel2_0",
      "primitives": [
        {
          "attributes": {
            "NORMAL": 11,
            "POSITION": 10,
            "TANGENT": 12,
            "TEXCOORD_0": 13
          },
          "indices": 14,
          "material": 2,
          "mode": 4
        }
      ]
    }
  ],
  "nodes": [
    {
      "children": [
        1
      ],
      "name": "RootNode (gltf orientation matrix)",
      "rotation": [
        -0.70710678118654746,
        -0,
        -0,
        0.70710678118654757
      ]
    },
    {
      "children": [
        2
      ],
      "name": "RootNode (model correction matrix)"
    },
    {
      "children": [
        3
      ],
      "matrix": [
        1,
        0,
        0,
        0,
        0,
        0,
        1,
        0,
        0,
        -1,
        0,
        0,
        0,
        0,
        0,
        1
      ],
      "name": "barrels.fbx"
    },
    {
      "children": [
        4,
        6,
        8
      ],
      "name": "RootNode"
    },
    {
      "children": [
        5
      ],
      "name": "ground_geo"
    },
    {
      "mesh": 0,
      "name": "ground_geo_ground_0"
    },
    {
      "children": [
        7
      ],
      "name": "barrel1_geo"
    },
    {
      "mesh": 1,
      "name": "barrel1_geo_barrel1_0"
    },
    {
      "children": [
        9
      ],
      "name": "barrel2_geo"
    },
    {
      "mesh": 2,
      "name": "barrel2_geo_barrel2_0"
    }
  ],
  "samplers": [
    {
      "magFilter": 9729,
      "minFilter": 9987,
      "wrapS": 10497,
      "wrapT": 10497
    }
  ],
  "scene": 0,
  "scenes": [
    {
      "name": "OSG_Scene",
      "nodes": [
        0
      ]
    }
  ],
  "textures": [
    {
      "sampler": 0,
      "source": 0
    },
    {
      "sampler": 0,
      "source": 1
    },
    {
      "sampler": 0,
      "source": 2
    },
    {
      "sampler": 0,
      "source": 3
    },
    {
      "sampler": 0,
      "source": 4
    },
    {
      "sampler": 0,
      "source": 5
    },
    {
      "sampler": 0,
      "source": 6
    },
    {
      "sampler": 0,
      "source": 7
    }
  ]
}

